<?xml version="1.0" encoding="UTF-8" standalone="no"?>
<!-- Created with Inkscape (http://www.inkscape.org/) -->
<svg xmlns:dc="http://purl.org/dc/elements/1.1/" xmlns:cc="http://creativecommons.org/ns#" xmlns:rdf="http://www.w3.org/1999/02/22-rdf-syntax-ns#" xmlns:svg="http://www.w3.org/2000/svg" xmlns="http://www.w3.org/2000/svg" xmlns:sodipodi="http://sodipodi.sourceforge.net/DTD/sodipodi-0.dtd" xmlns:inkscape="http://www.inkscape.org/namespaces/inkscape" width="1052.3622" height="744.09448" id="svg2" sodipodi:version="0.32" inkscape:version="0.46" sodipodi:docbase="/home/user" sodipodi:docname="gnome.asia-logo.10.svg" inkscape:output_extension="org.inkscape.output.svg.inkscape" version="1.0">
  <defs id="defs4">
    <inkscape:perspective sodipodi:type="inkscape:persp3d" inkscape:vp_x="0 : 526.18109 : 1" inkscape:vp_y="0 : 1000 : 0" inkscape:vp_z="744.09448 : 526.18109 : 1" inkscape:persp3d-origin="372.04724 : 350.78739 : 1" id="perspective241"/>
    <inkscape:perspective id="perspective3494" inkscape:persp3d-origin="571.97833 : 136.13385 : 1" inkscape:vp_z="1143.9567 : 204.20078 : 1" inkscape:vp_y="0 : 1000 : 0" inkscape:vp_x="0 : 204.20078 : 1" sodipodi:type="inkscape:persp3d"/>
    <inkscape:perspective id="perspective25" inkscape:persp3d-origin="571.97833 : 136.13385 : 1" inkscape:vp_z="1143.9567 : 204.20078 : 1" inkscape:vp_y="0 : 1000 : 0" inkscape:vp_x="0 : 204.20078 : 1" sodipodi:type="inkscape:persp3d"/>
  </defs>
  <sodipodi:namedview id="base" pagecolor="#ffffff" bordercolor="#666666" borderopacity="1.0" gridtolerance="10000" guidetolerance="10" objecttolerance="10" inkscape:pageopacity="0.0" inkscape:pageshadow="2" inkscape:zoom="0.90178079" inkscape:cx="526.18109" inkscape:cy="397.44193" inkscape:document-units="cm" inkscape:current-layer="layer1" inkscape:window-width="1398" inkscape:window-height="969" inkscape:window-x="0" inkscape:window-y="24" showgrid="false" showguides="true" inkscape:guide-bbox="true">
    <inkscape:grid type="xygrid" id="grid3715" visible="true" enabled="true" spacingx="1cm" spacingy="1cm" units="cm"/>
  </sodipodi:namedview>
  <metadata id="metadata7">
    <rdf:RDF>
      <cc:Work rdf:about="">
        <dc:format>image/svg+xml</dc:format>
        <dc:type rdf:resource="http://purl.org/dc/dcmitype/StillImage"/>
      </cc:Work>
      <cc:Work rdf:about="">
        <dc:format>image/svg+xml</dc:format>
        <dc:type rdf:resource="http://purl.org/dc/dcmitype/StillImage"/>
      </cc:Work>
    </rdf:RDF>
  </metadata>
  <g inkscape:label="Layer 1" inkscape:groupmode="layer" id="layer1">
    <rect style="opacity:1;fill:none;fill-opacity:1;fill-rule:evenodd;stroke:#010101;stroke-width:1.77165353;stroke-miterlimit:4;stroke-dasharray:none;stroke-dashoffset:14.99999935;stroke-opacity:0" inkscape:export-filename="/home/behnam/proj/gnome.asia/svn/summit/trunk/art/logo/gnome.asia-logo.10.png" inkscape:export-xdpi="72" inkscape:export-ydpi="72" id="rect2428" width="888.03619" height="389.24969" x="82.162994" y="177.42239"/>
    <g id="g2393">
      <g id="g2410">
        <path id="path3662" style="font-size:45.11105728px;font-style:normal;font-weight:normal;fill:#4e9a06;fill-opacity:1;stroke:none;stroke-width:1px;stroke-linecap:butt;stroke-linejoin:miter;stroke-opacity:1;font-family:Bitstream Vera Sans" d="M 459.86632,462.89335 C 450.94518,462.89341 443.86681,464.96931 438.57917,469.13435 C 433.32104,473.26999 430.69322,478.74919 430.69324,485.63191 C 430.69324,490.00385 431.9076,493.57667 434.41849,496.32386 C 436.9294,499.07111 440.79293,501.10116 445.93291,502.37136 L 452.85124,504.06466 C 456.5437,505.00993 458.96682,505.95494 460.05984,506.87068 C 461.15277,507.75691 461.70473,509.01961 461.70476,510.64432 C 461.70475,513.12569 460.47966,515.14502 458.02789,516.74018 C 455.60557,518.33535 452.44465,519.15917 448.54542,519.15918 C 444.94152,519.15918 441.28522,518.58838 437.56318,517.46588 C 433.87068,516.34337 430.02593,514.66059 426.09715,512.386 L 423.38787,526.75482 C 427.43484,528.32043 431.59726,529.53733 435.8215,530.33494 C 440.07522,531.1325 444.31051,531.49601 448.59381,531.49606 C 457.78068,531.49604 465.12287,529.35556 470.55829,525.01314 C 476.0231,520.67079 478.73443,514.87139 478.73448,507.69314 C 478.73443,503.26219 477.36935,499.6812 474.6222,496.90442 C 471.90447,494.09815 467.60197,491.94697 461.75314,490.46989 L 454.78643,488.72822 C 451.50749,487.93072 449.31853,487.13641 448.25514,486.30922 C 447.22121,485.45259 446.70696,484.28408 446.70699,482.77749 C 446.70696,480.41433 447.87551,478.54317 450.23872,477.2138 C 452.63141,475.88456 455.95123,475.23031 460.20498,475.23023 C 463.30667,475.23027 466.48642,475.66108 469.73582,476.48809 C 472.98515,477.28576 476.31566,478.51082 479.65371,480.16497 L 482.36298,466.13479 C 478.46363,465.04189 474.62962,464.24761 470.84856,463.7158 C 467.09693,463.15461 463.4406,462.89338 459.86632,462.89335 z M 818.49817,462.90579 L 815.58704,477.76786 L 807.26223,477.76786 L 804.96397,489.71881 L 813.18663,489.71881 L 808.89655,511.93532 C 808.70942,512.9644 808.58152,514.00181 808.48797,514.99966 C 808.39441,515.99753 808.33477,516.93548 808.33475,517.80865 C 808.33475,521.80024 809.66779,524.83008 812.3184,526.95061 C 814.96902,529.07109 818.809,530.16816 823.86077,530.16817 L 837.95676,530.16817 L 840.35717,518.16615 L 831.67485,518.16615 C 829.4296,518.16615 827.84068,517.87052 826.87405,517.24685 C 825.93851,516.62318 825.44398,515.61693 825.44402,514.1825 C 825.44398,513.87068 825.46386,513.5041 825.49509,513.16106 C 825.55744,512.81806 825.67681,512.43427 825.80152,511.93532 L 830.09161,489.71881 L 847.20087,489.71881 L 849.60128,477.76786 L 832.49201,477.76786 L 835.35207,462.90579 L 818.49817,462.90579 z M 774.5949,466.07228 L 762.13323,530.16817 L 779.39571,530.16817 L 791.4488,468.72804 C 789.88595,469.04446 788.2476,469.23877 786.59692,469.23877 C 782.23787,469.2388 778.13701,468.09644 774.5949,466.07228 z M 601.64338,476.49105 C 598.43137,476.49112 595.3617,477.24148 592.39927,478.73824 C 589.43674,480.23513 586.64284,482.4663 584.02339,485.42873 L 585.55556,477.76786 L 568.70166,477.76786 L 558.53825,530.16817 L 575.29001,530.16817 L 580.34618,504.3766 C 581.25049,499.66785 582.8904,495.95581 585.19806,493.24281 C 587.53681,490.49863 590.2313,489.15706 593.31857,489.15701 C 595.03368,489.15706 596.38656,489.64027 597.35329,490.63811 C 598.31998,491.60488 598.78329,492.97771 598.78332,494.72391 C 598.78329,495.41001 598.71501,496.31678 598.52796,497.53289 C 598.3408,498.7179 598.02528,500.50565 597.55758,502.84443 L 592.14391,530.16817 L 609.04888,530.16817 L 614.10505,504.3766 C 615.0717,499.48074 616.64065,495.70908 618.85479,493.08959 C 621.09995,490.43901 623.81435,489.15706 627.02638,489.15701 C 628.71021,489.15706 630.04321,489.64027 631.01003,490.63811 C 632.00783,491.63606 632.54215,493.00887 632.5422,494.72391 C 632.54213,495.81539 632.12715,498.26263 631.31646,502.12941 L 631.16324,502.84443 L 625.90278,530.16817 L 642.75668,530.16817 L 648.98752,498.24791 C 649.26808,496.71992 649.47554,495.34719 649.60039,494.16211 C 649.75617,492.94597 649.80455,491.88015 649.80468,490.94455 C 649.80456,486.4541 648.48288,482.92974 645.76996,480.37256 C 643.08804,477.78437 639.41581,476.49107 634.73831,476.49105 C 631.18328,476.49112 627.72715,477.38064 624.42168,479.09575 C 621.14731,480.81091 618.22541,483.23832 615.63722,486.45018 C 615.10704,483.51893 613.5268,481.13997 610.93856,479.30004 C 608.35026,477.42904 605.26066,476.49107 601.64338,476.49105 z M 703.41896,476.49105 C 700.20697,476.49112 697.1373,477.24148 694.17485,478.73824 C 691.21234,480.23513 688.41839,482.4663 685.79897,485.42873 L 687.33115,477.76786 L 670.52832,477.76786 L 660.31383,530.16817 L 677.11666,530.16817 L 682.17283,504.3766 C 683.07713,499.66785 684.66605,495.95581 686.97364,493.24281 C 689.31243,490.49863 692.0069,489.15706 695.09416,489.15701 C 696.80921,489.15706 698.16213,489.64027 699.12888,490.63811 C 700.09553,491.60488 700.60996,492.97771 700.60998,494.72391 C 700.60994,495.41001 700.49057,496.31678 700.30354,497.53289 C 700.1164,498.7179 699.80089,500.50565 699.33317,502.84443 L 693.91949,530.16817 L 710.82446,530.16817 L 715.88063,504.3766 C 716.84728,499.48074 718.41629,495.70908 720.63037,493.08959 C 722.87556,490.43901 725.64104,489.15706 728.85303,489.15701 C 730.5369,489.15706 731.86992,489.64027 732.83668,490.63811 C 733.8345,491.63606 734.3177,493.00887 734.31778,494.72391 C 734.31771,495.81539 733.90276,498.26263 733.09204,502.12941 L 732.93882,502.84443 L 727.67836,530.16817 L 744.53227,530.16817 L 750.7631,498.24791 C 751.04365,496.71992 751.25113,495.34719 751.37597,494.16211 C 751.5318,492.94597 751.63125,491.88015 751.63133,490.94455 C 751.63124,486.4541 750.25849,482.92974 747.54554,480.37256 C 744.86364,477.78437 741.19141,476.49107 736.51389,476.49105 C 732.95883,476.49112 729.50272,477.38064 726.19726,479.09575 C 722.92289,480.81091 720.00101,483.23832 717.41281,486.45018 C 716.88262,483.51893 715.35342,481.13997 712.76522,479.30004 C 710.17686,477.42904 707.03623,476.49107 703.41896,476.49105 z M 498.60702,477.76786 L 492.47833,509.7392 C 492.22885,511.04893 492.04131,512.35341 491.91653,513.56964 C 491.79182,514.78581 491.71224,515.90007 491.71224,516.99149 C 491.71224,521.6067 493.02537,525.19075 495.64482,527.7167 C 498.26425,530.2426 501.95637,531.49601 506.72753,531.49606 C 510.22012,531.49604 513.58814,530.74573 516.73773,529.24887 C 519.88729,527.75203 522.85753,525.53212 525.72648,522.50731 L 524.19431,530.16817 L 541.09928,530.16817 L 551.21162,477.76786 L 534.45986,477.76786 L 529.40369,503.55944 C 528.46813,508.33058 526.74003,512.06247 524.24538,514.7443 C 521.75064,517.42613 518.76907,518.72798 515.3077,518.72795 C 513.28071,518.72795 511.70045,518.18506 510.60904,517.09363 C 509.51759,516.00222 508.97469,514.46169 508.97472,512.49711 C 508.97471,511.77988 509.09403,510.83331 509.28116,509.58599 C 509.46822,508.33864 509.72411,506.81801 510.09832,505.04054 L 515.40985,477.76786 L 498.60702,477.76786 z"/>
        <path style="font-size:45.11105728px;font-style:normal;font-weight:normal;fill:#4e9a06;fill-opacity:1;stroke:none;stroke-width:1px;stroke-linecap:butt;stroke-linejoin:miter;stroke-opacity:1;font-family:Bitstream Vera Sans" d="M 786.60722,430.21448 C 794.70399,430.21443 801.22119,436.57618 801.22119,444.67299 C 801.22124,452.7698 794.70404,459.28697 786.60722,459.28697 C 778.51045,459.28701 772.1487,452.7698 772.1487,444.67299 C 772.14866,436.57623 778.5104,430.21448 786.60722,430.21448 z" id="path3641"/>
      </g>
      <g id="g2414">
        <path style="font-size:21.93271637px;font-style:normal;font-weight:normal;fill:#000000;fill-opacity:1;stroke:none;stroke-width:1px;stroke-linecap:butt;stroke-linejoin:miter;stroke-opacity:1;font-family:FreeSans" d="M 828.9613,415.90577 L 821.15285,437.07969 L 836.79821,437.07969 L 828.9613,415.90577 M 825.71254,410.2347 L 832.23853,410.2347 L 848.45385,452.78204 L 842.46931,452.78204 L 838.59359,441.86733 L 819.4145,441.86733 L 815.53878,452.78204 L 809.46876,452.78204 L 825.71254,410.2347 M 880.14345,411.63111 L 880.14345,417.24519 C 877.95862,416.20027 875.89725,415.42134 873.95944,414.90834 C 872.02157,414.39543 870.15021,414.13894 868.34535,414.13891 C 865.21058,414.13894 862.78827,414.74689 861.07839,415.96277 C 859.38752,417.1787 858.54209,418.90757 858.54209,421.14939 C 858.54209,423.03026 859.10253,424.45518 860.22346,425.42407 C 861.36336,426.37401 863.5102,427.14348 866.66399,427.73239 L 870.14073,428.44482 C 874.43439,429.26179 877.59763,430.70569 879.63052,432.7765 C 881.68233,434.82837 882.70824,437.58318 882.70827,441.04089 C 882.70824,445.1636 881.32137,448.28886 878.54758,450.41669 C 875.79279,452.54454 871.74607,453.60846 866.40752,453.60846 C 864.39365,453.60846 862.24679,453.38048 859.967,452.9245 C 857.70615,452.46854 855.35981,451.79409 852.92801,450.90117 L 852.92801,444.97361 C 855.26481,446.28451 857.55414,447.27246 859.79599,447.93738 C 862.03781,448.60235 864.24164,448.93482 866.40752,448.93482 C 869.69423,448.93482 872.23053,448.28886 874.01645,446.99696 C 875.8023,445.70503 876.69519,443.86221 876.69524,441.46836 C 876.69519,439.37852 876.04924,437.74465 874.75736,436.56675 C 873.48444,435.38884 871.3851,434.50541 868.45936,433.91644 L 864.95411,433.23248 C 860.66043,432.37757 857.55414,431.03816 855.63531,429.21429 C 853.71644,427.39046 852.757,424.85413 852.757,421.60534 C 852.757,417.84366 854.07741,414.87991 856.71822,412.71399 C 859.37803,410.54821 863.03525,409.4653 867.6899,409.46525 C 869.68474,409.4653 871.71758,409.64579 873.78844,410.00673 C 875.85925,410.36773 877.97759,410.90918 880.14345,411.63111 M 891.68512,410.2347 L 897.44168,410.2347 L 897.44168,452.78204 L 891.68512,452.78204 L 891.68512,410.2347 M 923.11828,415.90577 L 915.30984,437.07969 L 930.95519,437.07969 L 923.11828,415.90577 M 919.86952,410.2347 L 926.39551,410.2347 L 942.61084,452.78204 L 936.62627,452.78204 L 932.75057,441.86733 L 913.57148,441.86733 L 909.69576,452.78204 L 903.62574,452.78204 L 919.86952,410.2347" id="text3783"/>
        <path id="path15059" style="font-size:148.699646px;font-style:normal;font-variant:normal;font-weight:bold;font-stretch:normal;text-align:start;line-height:125%;writing-mode:lr-tb;text-anchor:start;fill:#000000;fill-opacity:1;stroke:none;stroke-width:1pt;stroke-linecap:butt;stroke-linejoin:miter;stroke-opacity:1;font-family:Bitstream Vera Sans" d="M 564.99266,367.37936 C 554.233,367.66916 545.73599,371.53622 539.48722,378.95249 C 533.01617,386.67044 529.76138,397.33444 529.76138,410.9344 C 529.76138,424.4968 533.0163,435.13162 539.48722,442.84942 C 545.98988,450.56737 554.91784,454.42255 566.30574,454.42255 C 577.72501,454.42255 586.67541,450.56737 593.14646,442.84942 C 599.61736,435.13162 602.85016,424.4968 602.85008,410.9344 C 602.85001,397.33444 599.61736,386.67044 593.14646,378.95249 C 586.67541,371.23475 577.72494,367.37944 566.30574,367.37936 C 565.86089,367.37936 565.43002,367.36761 564.99266,367.37936 z M 565.79388,383.0476 C 565.96586,383.04283 566.13124,383.0476 566.30574,383.0476 C 571.92016,383.04766 576.27065,385.47716 579.34774,390.34756 C 582.42464,395.2181 583.97693,402.09253 583.97699,410.9344 C 583.97699,419.73873 582.42449,426.56181 579.34774,431.43213 C 576.27079,436.30274 571.92008,438.75433 566.30574,438.75433 C 560.72279,438.75433 556.40748,436.30274 553.33051,431.43213 C 550.25357,426.56181 548.70134,419.73873 548.70127,410.9344 C 548.70127,402.0926 550.2537,395.2181 553.33051,390.34756 C 556.31118,385.62936 560.4612,383.19516 565.79388,383.0476 z M 443.44499,446.55511 C 433.96742,454.51435 419.86665,454.42283 413.99236,454.42283 C 402.16049,454.42283 392.78706,450.52643 385.87203,442.73363 C 378.95685,434.90335 375.49937,424.30075 375.49937,410.92556 C 375.49937,397.40062 379.02032,386.76054 386.06233,379.00511 C 393.10434,371.24992 402.74734,367.37225 414.99157,367.37217 C 419.71788,367.37225 424.23803,367.89677 428.55212,368.94569 C 432.89785,369.99474 436.98983,371.5496 440.82804,373.61012 L 435.89895,388.18213 C 433.74116,387.0009 431.27063,385.83674 428.98036,385.01829 C 425.07869,383.70708 421.16121,383.05144 417.22792,383.05137 C 409.93208,383.05144 404.30162,385.46797 400.33664,390.30091 C 396.40321,395.09652 394.43656,401.97139 394.43656,410.92556 C 394.43656,419.80489 396.33975,426.6611 400.14634,431.4941 C 403.95273,436.32711 409.6732,438.74358 416.37136,438.74358 C 423.17621,438.74358 427.39097,437.02833 429.63886,435.221 L 429.63886,420.70403 L 414.89642,420.70403 L 414.89642,406.20495 L 443.44499,406.20495 M 455.9664,368.8895 L 467.52377,368.8895 L 504.0432,419.31427 L 504.0432,368.8895 L 519.62974,368.8895 L 519.62974,452.79305 L 508.07235,452.79305 L 471.553,402.36829 L 471.553,452.79305 L 455.9664,452.79305 L 455.9664,368.8895 M 614.87446,368.8895 L 638.18919,368.8895 L 654.36671,421.26973 L 670.63937,368.8895 L 690.34558,368.8895 L 699.24799,452.79305 L 681.92847,452.79305 L 676.58703,400.32729 L 660.21922,453.04467 L 648.60942,453.04467 L 632.24153,398.54681 L 626.90009,452.79305 L 609.53301,452.79305 L 618.4354,368.8895 M 711.74937,368.8895 L 761.18596,368.8895 L 761.18596,385.24314 L 730.06795,385.24314 L 730.06795,402.64661 L 753.98884,402.64661 L 753.98884,417.21971 L 730.06795,417.21971 L 730.06795,436.43948 L 762.23274,436.43948 L 762.23274,452.79305 L 711.74937,452.79305 L 711.74937,368.8895"/>
        <text x="771.53247" y="383.30591" style="font-size:21.85688019px;font-style:normal;font-weight:normal;fill:#000000;fill-opacity:1;stroke:none;stroke-width:1pt;stroke-linecap:butt;stroke-linejoin:miter;stroke-opacity:1;font-family:Bitstream Vera Sans" id="text15069" xml:space="preserve"><tspan x="771.53247" y="383.30591" style="letter-spacing:7.87869263" id="tspan15072"><tspan style="letter-spacing:0.17974409" id="tspan15074">TM</tspan></tspan></text>
      </g>
      <path d="M 132.72802,212.59842 C 120.02332,212.59842 109.75135,224.28912 109.75135,238.81341 L 109.75135,505.28107 C 109.75135,519.80538 120.02334,531.49606 132.72802,531.49606 L 146.09252,531.49606 C 146.05435,531.174 146.09252,530.84771 146.14392,530.51942 C 146.32321,529.3527 146.53009,528.19046 146.70935,527.02408 C 146.70923,527.00694 146.70923,526.98982 146.70935,526.97268 C 147.26626,523.56231 147.79149,520.12646 148.35421,516.6923 L 168.19535,514.89323 C 167.63046,518.28358 167.11374,521.687 166.55049,525.12221 C 166.37076,526.28796 166.21621,527.45181 166.03647,528.61755 C 165.83621,529.96153 164.88754,531.06737 163.62059,531.49606 L 321.88715,531.49606 C 334.59186,531.49606 344.86383,519.80542 344.86382,505.28107 L 344.86382,238.81341 C 344.86382,224.2891 334.59184,212.59842 321.88715,212.59842 L 219.7515,212.59842 C 219.37592,214.08435 218.98726,215.52893 218.56926,217.07039 C 217.04686,223.28249 215.996,229.68361 214.76551,236.19192 C 214.75039,236.26093 214.73325,236.32951 214.71411,236.39753 C 213.65916,240.74379 213.44811,245.31665 213.27486,250.12184 L 193.69072,245.75268 C 193.92224,243.1412 194.30004,240.50345 194.92437,237.83677 L 194.87296,237.83677 C 194.88263,237.78486 194.91471,237.7345 194.92437,237.68257 C 196.10596,231.32308 197.17406,224.82685 198.7281,218.30404 C 198.72799,218.2869 198.72799,218.26978 198.7281,218.25264 C 199.20544,216.40714 199.69598,214.50112 200.16736,212.59842 L 132.72802,212.59842 z M 257.37773,232.02836 C 263.66231,231.94304 271.12617,234.6111 280.25159,241.0751 C 299.47938,244.12331 317.76611,261.42084 334.94325,299.98172 C 334.96955,300.04077 335.01975,300.07678 335.04605,300.13593 L 333.50399,301.00976 C 333.46318,300.95606 333.44196,300.90918 333.40119,300.85555 C 310.17485,270.30721 292.84621,252.29269 279.53196,242.77137 C 262.49655,240.25666 244.72886,249.4685 226.53656,264.7714 C 231.10339,263.98377 235.58924,263.76167 239.90106,264.20597 C 252.1167,259.09722 261.55507,257.72532 268.99456,259.11718 C 276.4667,260.51515 281.87328,264.74789 285.9058,270.57981 C 293.96289,282.2322 296.87223,300.18996 301.53199,316.07053 C 301.53658,316.08617 301.5274,316.10629 301.53199,316.12193 C 306.97466,324.93921 312.26603,334.48282 317.41519,344.65001 L 316.13014,345.72945 C 316.03419,345.65598 315.96804,345.54712 315.87313,345.47244 C 307.75506,339.08598 303.3754,328.414 299.93853,316.73875 C 299.91753,316.70482 299.90813,316.66987 299.88712,316.63595 C 282.28911,288.22951 262.91379,268.61936 240.26088,266.00503 C 232.11387,269.4448 222.4915,274.6962 211.42438,281.88823 C 211.33991,282.83332 211.258,283.77274 211.16738,284.71535 C 227.58169,292.84017 235.15871,302.83151 238.41041,313.70604 C 241.91003,325.40973 240.71447,337.95792 241.23751,350.15001 C 243.92195,358.98574 246.32923,368.19614 248.48519,377.70145 L 246.89173,378.36968 C 246.83743,378.28242 246.79103,378.20005 246.73752,378.11267 C 246.71695,378.07906 246.70658,378.04348 246.68612,378.00987 C 241.34971,369.24031 239.95847,359.84834 239.54125,350.45842 C 239.52018,350.38926 239.51095,350.32194 239.48985,350.25281 C 232.49538,327.3458 223.30299,307.27798 210.39635,292.22003 C 210.17691,294.31117 209.99119,296.41288 209.77953,298.49107 C 209.02162,305.56134 208.14675,312.60995 207.31223,319.61726 C 206.89912,323.01946 206.44957,326.4025 206.02718,329.79485 L 186.34024,330.46307 C 186.70177,327.54962 187.06643,324.63003 187.41968,321.72474 C 188.25827,314.69621 189.13531,307.73933 189.88698,300.75275 C 190.02636,299.39062 190.15466,298.04807 190.29819,296.69199 C 178.86135,305.19112 166.12332,315.33605 151.84954,327.53316 C 151.78907,327.58482 151.75585,327.63564 151.69533,327.68737 L 150.41028,326.50512 C 150.45575,326.44384 150.51904,326.4121 150.56449,326.35092 C 165.34411,306.45279 178.98372,291.98784 191.73744,281.93964 C 191.7962,281.23481 191.88986,280.53669 191.94305,279.83216 C 191.95764,279.6077 191.97958,279.38817 191.99446,279.16394 C 173.5942,273.62395 148.06366,269.44022 112.42425,267.18728 C 112.33255,267.1815 112.25908,267.19306 112.16725,267.18728 L 112.01304,265.43962 C 146.81157,257.8025 172.73049,261.90545 192.35426,274.17795 C 192.71328,269.07955 193.03899,264.01924 193.1253,259.01437 C 193.12519,258.99723 193.12519,258.98011 193.1253,258.96297 C 193.22693,256.63717 193.29885,254.24347 193.3823,251.8181 L 213.01785,256.18727 C 212.94118,260.52442 212.68871,264.79995 212.40102,269.03776 C 216.01961,267.41675 219.56682,266.17807 223.04122,265.33681 C 223.50922,264.93647 223.98874,264.57938 224.42908,264.20597 C 224.44191,264.18658 224.46767,264.17398 224.48048,264.15457 C 229.08225,257.18754 233.25562,249.3001 238.2562,243.07977 C 243.30715,236.79678 249.30175,232.138 257.37773,232.02836 z M 205.30756,335.80887 C 205.10297,337.43523 204.89651,339.06593 204.69074,340.69205 C 203.79404,347.72374 202.87703,354.74676 201.96643,361.76685 C 201.05192,368.79365 200.11111,375.71707 199.19073,382.73884 C 198.4247,389.88118 197.23407,396.87392 196.20942,403.76223 C 196.18326,403.90122 196.14893,404.03853 196.10661,404.17345 C 194.41921,410.45191 192.9276,416.7514 191.32623,423.14077 C 191.04616,424.31891 190.81081,425.49764 190.5552,426.6875 L 172.10191,421.95852 C 173.43309,416.55098 174.73294,411.09421 176.26546,405.61271 C 177.33918,398.61839 178.61513,391.78557 179.29818,385.00053 C 179.29769,384.96626 179.29769,384.93198 179.29818,384.89772 C 180.2189,377.87429 181.16004,370.84315 182.07388,363.82293 C 182.98524,356.79891 183.90294,349.81597 184.79819,342.79953 C 185.06497,340.69257 185.30465,338.58568 185.56921,336.47709 L 205.30756,335.80887 z M 170.76545,427.76695 L 189.32155,432.54732 C 188.68317,435.89076 188.10553,439.27305 187.47108,442.6735 C 187.46125,442.76302 187.4301,442.84123 187.41968,442.93051 C 186.52837,450.5748 183.57401,457.37464 181.09724,463.8511 C 181.08127,463.90289 181.06413,463.9543 181.04584,464.00531 C 178.35099,470.28197 176.66741,476.96648 174.56919,483.89786 C 172.7421,490.52557 171.54348,497.36181 170.09723,504.35583 C 169.81007,505.84017 169.54148,507.33818 169.27479,508.8278 L 149.38224,510.62687 C 149.65653,509.07255 149.9566,507.50784 150.25608,505.94929 C 150.25596,505.93215 150.25596,505.91503 150.25608,505.89789 C 151.66726,499.02009 152.90216,491.94999 154.83085,484.87449 C 154.83074,484.85735 154.83074,484.84023 154.83085,484.82309 C 156.77885,478.06475 158.64045,471.07884 161.51311,464.15951 C 161.53217,464.10665 161.54539,464.05809 161.56451,464.00531 C 164.03746,457.17745 166.95122,451.04164 167.52713,444.93519 C 167.53818,444.81446 167.55534,444.69437 167.57853,444.57538 C 168.60427,439.03489 169.55951,433.42446 170.76545,427.76695 z M 322.57776,366.31864 C 290.10354,366.31864 284.01181,412.57217 302.28038,412.57217 C 320.54631,412.57217 355.05331,366.31864 322.57776,366.31864 z M 268.65513,406.8408 C 278.38209,407.4348 289.05415,369.72024 270.77238,372.09225 C 252.49722,374.46426 258.92421,406.24681 268.65513,406.8408 z M 224.07666,430.27579 C 230.99469,427.23058 224.96765,397.44516 213.20396,405.56834 C 201.44555,413.69284 217.15863,433.31967 224.07666,430.27579 z M 243.56885,414.68546 C 251.80422,413.00645 252.25566,379.22544 237.56953,385.28548 C 222.88075,391.34684 235.34007,416.36712 243.56885,414.68546 L 243.56885,414.68546 z M 286.57258,490.28222 C 288.0338,501.44136 278.38605,506.95229 268.93761,499.75838 C 238.85915,476.85799 318.73925,465.43354 313.47384,434.1473 C 309.10338,408.17795 229.42259,416.17309 220.34903,456.80745 C 214.20714,484.29082 245.63066,522.41985 278.41905,522.41985 C 294.54924,522.41985 313.1544,507.85516 316.6352,489.40443 C 319.29365,475.33473 285.35292,480.97238 286.57258,490.28222 L 286.57258,490.28222 z" style="fill:#4e9a06;fill-opacity:1;fill-rule:evenodd;stroke:none;stroke-width:5.69999981;stroke-linejoin:round;stroke-miterlimit:4;stroke-dasharray:none;stroke-dashoffset:0;stroke-opacity:1" id="path3360"/>
    </g>
  </g>
</svg>